inDegrees=no
num_controls=7
num_derivatives=13
num_iterations=120
num_multipliers=7
num_parameters=0
num_slacks=7
num_states=26
objective=0.516170
objective_accelerations=0.002343
objective_balance=0.003145
objective_effort=0.014897
objective_height=0.486797
objective_ligament=0.008989
solver_duration=1409.638340
status=Solve_Succeeded
success=true
DataType=double
version=3
OpenSimVersion=4.5
endheader
time	/jointset/ground_pelvis/pelvis_tilt/value	/jointset/ground_pelvis/pelvis_tx/value	/jointset/ground_pelvis/pelvis_ty/value	/jointset/hip_r/hip_flexion_r/value	/jointset/hip_r/hip_adduction_r/value	/jointset/hip_r/hip_rotation_r/value	/jointset/back/lumbar_extension/value	/jointset/patellofemoral_r/patellar_flexion_r/value	/jointset/knee_r/knee_flexion_r/value	/jointset/knee_r/knee_adduction_r/value	/jointset/knee_r/knee_rotation_r/value	/jointset/ankle_r/ankle_angle_r/value	/jointset/subtalar_r/subtalar_angle_r/value	/jointset/ground_pelvis/pelvis_tilt/speed	/jointset/ground_pelvis/pelvis_tx/speed	/jointset/ground_pelvis/pelvis_ty/speed	/jointset/hip_r/hip_flexion_r/speed	/jointset/hip_r/hip_adduction_r/speed	/jointset/hip_r/hip_rotation_r/speed	/jointset/back/lumbar_extension/speed	/jointset/patellofemoral_r/patellar_flexion_r/speed	/jointset/knee_r/knee_flexion_r/speed	/jointset/knee_r/knee_adduction_r/speed	/jointset/knee_r/knee_rotation_r/speed	/jointset/ankle_r/ankle_angle_r/speed	/jointset/subtalar_r/subtalar_angle_r/speed	/forceset/tau_hip_flexion_r	/forceset/tau_hip_adduction_r	/forceset/tau_hip_rotation_r	/forceset/tau_knee_flexion_r	/forceset/tau_ankle_angle_r	/forceset/tau_subtalar_angle_r	/forceset/tau_lumbar_extension	lambda_cid13_p0	lambda_cid14_p0	lambda_cid14_p1	lambda_cid14_p2	lambda_cid14_p3	lambda_cid14_p4	lambda_cid14_p5	/jointset/ground_pelvis/pelvis_tilt/accel	/jointset/ground_pelvis/pelvis_tx/accel	/jointset/ground_pelvis/pelvis_ty/accel	/jointset/hip_r/hip_flexion_r/accel	/jointset/hip_r/hip_adduction_r/accel	/jointset/hip_r/hip_rotation_r/accel	/jointset/back/lumbar_extension/accel	/jointset/patellofemoral_r/patellar_flexion_r/accel	/jointset/knee_r/knee_flexion_r/accel	/jointset/knee_r/knee_adduction_r/accel	/jointset/knee_r/knee_rotation_r/accel	/jointset/ankle_r/ankle_angle_r/accel	/jointset/subtalar_r/subtalar_angle_r/accel	gamma_cid13_p0	gamma_cid14_p0	gamma_cid14_p1	gamma_cid14_p2	gamma_cid14_p3	gamma_cid14_p4	gamma_cid14_p5
1.5	-0.0143839596000837	0.1437331377517892	0.9455578709445891	0.1299701481474106	-0.2018502653630257	-0.2729133529131807	-0.05454189495596343	0.06567793540022906	0.06567793540022684	0.1147330565748083	0.1745215065566413	0.09706101603914961	0.04652161815451138	-0.04767253040556159	-0.06847561778469943	0.001273835248452837	0.03367479304312238	-0.03254577601956286	-0.02388918745959448	0.2149660416963564	-0.1617030371030653	-0.1617030371032212	0.1144623021230848	6.085099300896745e-05	-0.1826708541087838	-0.08677341122858187	0.08326088278996858	-0.06227146632874248	-0.01211668975417335	-0.1617059311809173	0.05324010433047662	-0.04292379429118676	-0.002921765090614554	-38.54124982426086	-28.42117371486382	-16.34461391959144	-5.242375690858808	8.785449715276453	-694.0608080750116	62.73463942745801	0.04581236302322583	-0.1134506811569386	-0.01379590406183548	0.06787149813534299	-0.06916354727516982	-0.01235014336330971	0.08156843060576384	0.0008172931425091466	0.0008172931425091514	0.1369932086351546	-0.006553687942704571	-0.1584007225023553	-0.1010866037199865	1.176367893953746e-08	1.036216151984766e-08	-9.210459988100603e-08	5.834062426674862e-08	2.815357056528705e-09	1.190897239605316e-08	-1.018814520118011e-07
1.51	-0.01485825389724988	0.1430427857163665	0.9455699136560969	0.130310042350328	-0.2021793464868083	-0.2731531291522287	-0.05238846033616222	0.06406104552894422	0.06406104552894551	0.1158848611862359	0.1745221042365006	0.09522648437276056	0.04564868273887227	-0.04717668533647992	-0.06958803525662254	0.001134117214775919	0.03429836327502869	-0.03326832926329784	-0.0240634178579618	0.215694122472386	-0.1616532176691943	-0.1616532176693331	0.1158875577030818	5.794909104978858e-05	-0.1842145066176754	-0.0878045290272276	0.08429160239164708	-0.06403004831233657	-0.01229844394979559	-0.1634025474871338	0.05694866763804549	-0.04386306492455609	-0.003925312987540279	-38.48495535577305	-27.28325701448927	-16.54393423761821	-5.221294455159637	8.396162423634285	-693.9772434455298	62.96849982418698	0.05291787268708221	-0.1091236035995962	-0.01414579572915214	0.05874804888088533	-0.07348320811756943	-0.01955275230343602	0.06441393252408883	0.01031971815125371	0.01031971815381958	0.1436264483876193	0.0027424253636117	-0.1491987888160901	-0.1027609341932001	1.216098172515897e-08	1.081152384253036e-08	-9.385088222305011e-08	5.905515417100894e-08	2.83949827531154e-09	1.207802364637619e-08	-1.029864726007414e-07
1.52	-0.01532730028495828	0.1423415122415465	0.9455805419787267	0.1306560019081941	-0.2025155895420664	-0.2733945663481056	-0.05022854770231707	0.06244530494192585	0.06244530494193041	0.1170505852965999	0.1745226530706798	0.09337714592653605	0.04476570883199546	-0.04662294851394728	-0.07065990566413552	0.0009909574728436048	0.03488786403343919	-0.03397816231483052	-0.02422137882552871	0.2162616445053177	-0.1614731802496475	-0.1614731802497692	0.1172462019113057	5.108185653657202e-05	-0.185632210075908	-0.08878110947612777	0.08532232199330306	-0.06578863029593279	-0.012480198145413	-0.165099163793357	0.06065723094561261	-0.04480233555792846	-0.004928860884484734	-38.42842674564971	-26.14617372130497	-16.74103901196893	-5.203263814459716	8.006514014431501	-693.9124237078063	63.21918090154056	0.05739071371351922	-0.1053412682750089	-0.01448424571290728	0.06105760343621043	-0.06661950883468719	-0.00909625720322628	0.0494566819862428	0.02686089027769358	0.02686089027769442	0.1236709342804889	-0.007346754453512014	-0.1332109123706536	-0.09017913377087562	1.255032466393202e-08	1.128420638273995e-08	-9.534230387416918e-08	5.959060141393256e-08	2.827980344781182e-09	1.231627541726563e-08	-1.036698248789696e-07
1.53	-0.01579052148376545	0.1416297349418655	0.9455897238255757	0.1310076631706609	-0.2028588556510423	-0.27363753587732	-0.04806376158801529	0.06083199615003728	0.06083199615004978	0.1182295475214196	0.174523139369556	0.09151426705780492	0.04387325655348048	-0.0460120320538651	-0.07168762584604975	0.0008449561834278268	0.03543772902324931	-0.03467228761523967	-0.02437004026056745	0.2166690346571366	-0.1611671256585291	-0.1611671256585892	0.1185339821421753	4.568205788565758e-05	-0.1869211162389873	-0.08969924356455354	0.08641145392533568	-0.0676402712329523	-0.01268542415220274	-0.166943906844124	0.06458684565671878	-0.04578968460054372	-0.005971016908440541	-38.3717051264743	-24.93946130350436	-16.94690186586203	-5.183757860479215	7.571975291307621	-693.838419840166	63.47135046178045	0.0643318553519177	-0.1002975790829945	-0.01472386857669316	0.05095307033765962	-0.07039359245401346	-0.01736753326377562	0.03239862724091593	0.03569298696589435	0.03569298697515093	0.1294861935162193	0.002800536379855867	-0.1233603091868444	-0.0911234722836526	1.293121026542856e-08	1.178166665407186e-08	-9.656293604118045e-08	5.993577332918596e-08	2.778574568105559e-09	1.262805274125688e-08	-1.039051545770662e-07
